<svg version="1.1" id="Capa_1" xmlns="http://www.w3.org/2000/svg" xmlns:xlink="http://www.w3.org/1999/xlink" x="0px" y="0px"
	 viewBox="0 0 200 200" style="enable-background:new 0 0 200 200;" xml:space="preserve">
<style type="text/css">
	.st0{fill:none;stroke:#000000;stroke-width:2;}
</style>
<path class="st0" d="M100,190c-49.7,0-90-40.3-90-90s40.3-90,90-90"/>
<path class="st0" d="M100,180c-44.2,0-80-35.8-80-80s35.8-80,80-80"/>
<path class="st0" d="M100,170c-38.7,0-70-31.3-70-70s31.3-70,70-70"/>
<path class="st0" d="M100,160c-33.1,0-60-26.9-60-60s26.9-60,60-60"/>
<path class="st0" d="M100,150c-27.6,0-50-22.4-50-50s22.4-50,50-50"/>
<path class="st0" d="M100,140c-22.1,0-40-17.9-40-40s17.9-40,40-40"/>
<path class="st0" d="M100,130c-16.6,0-30-13.4-30-30s13.4-30,30-30"/>
<path class="st0" d="M100,120c-11,0-20-9-20-20s9-20,20-20"/>
<path class="st0" d="M100,110c-5.5,0-10-4.5-10-10s4.5-10,10-10"/>
<path class="st0" d="M100,102c-1.1,0-2-0.9-2-2s0.9-2,2-2"/>
</svg>
